<svg width="106" height="32" viewBox="0 0 106 32" fill="none" xmlns="http://www.w3.org/2000/svg">
<path d="M28.2858 26.2749C27.3568 26.2749 26.529 26.1137 25.8022 25.7915C25.0755 25.4629 24.5004 24.9794 24.077 24.3412C23.66 23.6966 23.4514 22.894 23.4514 21.9335C23.4514 21.1246 23.5999 20.4452 23.8969 19.8955C24.1939 19.3457 24.5984 18.9033 25.1103 18.5684C25.6221 18.2335 26.2035 17.9807 26.8544 17.8101C27.5116 17.6394 28.2004 17.5194 28.9209 17.4499C29.7677 17.3614 30.4501 17.2792 30.9683 17.2034C31.4865 17.1212 31.8625 17.0012 32.0963 16.8432C32.3302 16.6852 32.4471 16.4514 32.4471 16.1417V16.0849C32.4471 15.4845 32.2575 15.02 31.8783 14.6914C31.5055 14.3628 30.9747 14.1985 30.2858 14.1985C29.5591 14.1985 28.9809 14.3597 28.5512 14.682C28.1214 14.9979 27.8371 15.396 27.698 15.8763L23.9633 15.573C24.1529 14.6883 24.5257 13.9236 25.0818 13.2791C25.6379 12.6282 26.3552 12.1289 27.2336 11.7814C28.1183 11.4275 29.142 11.2505 30.3048 11.2505C31.1137 11.2505 31.8878 11.3453 32.6272 11.5349C33.3729 11.7245 34.0332 12.0183 34.6083 12.4165C35.1897 12.8146 35.6479 13.3264 35.9828 13.9521C36.3177 14.5714 36.4852 15.3139 36.4852 16.1797V26H32.6556V23.981H32.5419C32.308 24.4359 31.9952 24.8372 31.6034 25.1848C31.2116 25.526 30.7408 25.7946 30.1911 25.9905C29.6413 26.1801 29.0062 26.2749 28.2858 26.2749ZM29.4422 23.488C30.0362 23.488 30.5607 23.3711 31.0157 23.1373C31.4707 22.8972 31.8278 22.5749 32.0869 22.1704C32.346 21.766 32.4755 21.3078 32.4755 20.796V19.2509C32.3491 19.333 32.1753 19.4089 31.9542 19.4784C31.7393 19.5416 31.496 19.6016 31.2243 19.6585C30.9525 19.709 30.6808 19.7564 30.4091 19.8007C30.1373 19.8386 29.8909 19.8733 29.6697 19.9049C29.1957 19.9745 28.7818 20.085 28.4279 20.2367C28.0741 20.3884 27.7992 20.5938 27.6033 20.8529C27.4074 21.1056 27.3094 21.4216 27.3094 21.8008C27.3094 22.3505 27.5085 22.7708 27.9066 23.0615C28.311 23.3459 28.8229 23.488 29.4422 23.488ZM85.2693 26.2749C84.3404 26.2749 83.5126 26.1137 82.7858 25.7915C82.0591 25.4629 81.484 24.9794 81.0606 24.3412C80.6435 23.6966 80.435 22.894 80.435 21.9335C80.435 21.1246 80.5835 20.4452 80.8805 19.8955C81.1775 19.3457 81.582 18.9033 82.0938 18.5684C82.6057 18.2335 83.1871 17.9807 83.838 17.8101C84.4952 17.6394 85.184 17.5194 85.9044 17.4499C86.7512 17.3614 87.4337 17.2792 87.9519 17.2034C88.4701 17.1212 88.8461 17.0012 89.0799 16.8432C89.3138 16.6852 89.4307 16.4514 89.4307 16.1417V16.0849C89.4307 15.4845 89.2411 15.02 88.8619 14.6914C88.4891 14.3628 87.9582 14.1985 87.2694 14.1985C86.5427 14.1985 85.9645 14.3597 85.5348 14.682C85.105 14.9979 84.8207 15.396 84.6816 15.8763L80.9469 15.573C81.1365 14.6883 81.5093 13.9236 82.0654 13.2791C82.6215 12.6282 83.3388 12.1289 84.2172 11.7814C85.1019 11.4275 86.1256 11.2505 87.2884 11.2505C88.0973 11.2505 88.8714 11.3453 89.6108 11.5349C90.3565 11.7245 91.0168 12.0183 91.5919 12.4165C92.1733 12.8146 92.6314 13.3264 92.9664 13.9521C93.3013 14.5714 93.4688 15.3139 93.4688 16.1797V26H89.6392V23.981H89.5255C89.2916 24.4359 88.9788 24.8372 88.587 25.1848C88.1952 25.526 87.7244 25.7946 87.1746 25.9905C86.6249 26.1801 85.9898 26.2749 85.2693 26.2749ZM86.4258 23.488C87.0198 23.488 87.5443 23.3711 87.9993 23.1373C88.4543 22.8972 88.8114 22.5749 89.0705 22.1704C89.3296 21.766 89.4591 21.3078 89.4591 20.796V19.2509C89.3327 19.333 89.1589 19.4089 88.9378 19.4784C88.7229 19.5416 88.4796 19.6016 88.2079 19.6585C87.9361 19.709 87.6644 19.7564 87.3927 19.8007C87.1209 19.8386 86.8745 19.8733 86.6533 19.9049C86.1793 19.9745 85.7654 20.085 85.4115 20.2367C85.0576 20.3884 84.7828 20.5938 84.5869 20.8529C84.3909 21.1056 84.293 21.4216 84.293 21.8008C84.293 22.3505 84.4921 22.7708 84.8902 23.0615C85.2946 23.3459 85.8065 23.488 86.4258 23.488Z" fill="#EA4335"/>
<path d="M53.1921 11.4401L48.1018 26H43.5518L38.4616 11.4401H42.7272L45.751 21.8576H45.9027L48.917 11.4401H53.1921Z" fill="#FBBC05"/>
<path d="M59.4104 26.2749C58.4814 26.2749 57.6536 26.1137 56.9268 25.7915C56.2001 25.4629 55.625 24.9794 55.2016 24.3412C54.7846 23.6966 54.576 22.894 54.576 21.9335C54.576 21.1246 54.7245 20.4452 55.0215 19.8955C55.3186 19.3457 55.723 18.9033 56.2349 18.5684C56.7467 18.2335 57.3281 17.9807 57.979 17.8101C58.6362 17.6394 59.3251 17.5194 60.0455 17.4499C60.8923 17.3614 61.5748 17.2792 62.093 17.2034C62.6111 17.1212 62.9871 17.0012 63.221 16.8432C63.4548 16.6852 63.5717 16.4514 63.5717 16.1417V16.0849C63.5717 15.4845 63.3821 15.02 63.0029 14.6914C62.6301 14.3628 62.0993 14.1985 61.4105 14.1985C60.6837 14.1985 60.1055 14.3597 59.6758 14.682C59.2461 14.9979 58.9617 15.396 58.8227 15.8763L55.0879 15.573C55.2775 14.6883 55.6503 13.9236 56.2064 13.2791C56.7625 12.6282 57.4798 12.1289 58.3582 11.7814C59.2429 11.4275 60.2666 11.2505 61.4294 11.2505C62.2383 11.2505 63.0124 11.3453 63.7518 11.5349C64.4975 11.7245 65.1579 12.0183 65.7329 12.4165C66.3143 12.8146 66.7725 13.3264 67.1074 13.9521C67.4423 14.5714 67.6098 15.3139 67.6098 16.1797V26H63.7802V23.981H63.6665C63.4327 24.4359 63.1199 24.8372 62.7281 25.1848C62.3362 25.526 61.8655 25.7946 61.3157 25.9905C60.7659 26.1801 60.1308 26.2749 59.4104 26.2749ZM60.5668 23.488C61.1608 23.488 61.6854 23.3711 62.1403 23.1373C62.5953 22.8972 62.9524 22.5749 63.2115 22.1704C63.4706 21.766 63.6001 21.3078 63.6001 20.796V19.2509C63.4737 19.333 63.3 19.4089 63.0788 19.4784C62.8639 19.5416 62.6206 19.6016 62.3489 19.6585C62.0772 19.709 61.8054 19.7564 61.5337 19.8007C61.262 19.8386 61.0155 19.8733 60.7943 19.9049C60.3204 19.9745 59.9064 20.085 59.5526 20.2367C59.1987 20.3884 58.9238 20.5938 58.7279 20.8529C58.532 21.1056 58.434 21.4216 58.434 21.8008C58.434 22.3505 58.6331 22.7708 59.0312 23.0615C59.4356 23.3459 59.9475 23.488 60.5668 23.488ZM96.6016 26V11.4401H100.516V13.9805H100.668C100.934 13.0768 101.379 12.3943 102.005 11.933C102.63 11.4654 103.351 11.2316 104.166 11.2316C104.368 11.2316 104.586 11.2442 104.82 11.2695C105.054 11.2948 105.259 11.3295 105.436 11.3738V14.9569C105.247 14.9 104.984 14.8494 104.649 14.8052C104.314 14.761 104.008 14.7388 103.73 14.7388C103.136 14.7388 102.605 14.8684 102.137 15.1275C101.676 15.3803 101.31 15.7341 101.038 16.1891C100.772 16.6441 100.64 17.1686 100.64 17.7627V26H96.6016Z" fill="#4285F4"/>
<path d="M78.487 11.4401V14.4734H69.7189V11.4401H78.487ZM71.7095 7.9518H75.7476V21.5259C75.7476 21.8987 75.8045 22.1894 75.9182 22.3979C76.032 22.6002 76.1899 22.7424 76.3922 22.8245C76.6007 22.9067 76.8408 22.9477 77.1126 22.9477C77.3022 22.9477 77.4917 22.9319 77.6813 22.9003C77.8709 22.8624 78.0163 22.834 78.1174 22.815L78.7525 25.8199C78.5502 25.8831 78.2659 25.9558 77.8993 26.0379C77.5328 26.1264 77.0873 26.1801 76.5628 26.1991C75.5896 26.237 74.7365 26.1074 74.0034 25.8104C73.2767 25.5134 72.7111 25.0521 72.3067 24.4265C71.9022 23.8008 71.7032 23.0109 71.7095 22.0567V7.9518Z" fill="#34A853"/>
<rect x="10.0098" y="5.83984" width="5.00496" height="5.00496" fill="#0E50BF"/>
<rect y="5.83984" width="5.00496" height="5.00496" fill="#0E50BF"/>
<rect x="5.00488" y="5.83984" width="5.00496" height="5.00496" fill="#73A0EB"/>
<rect y="10.8447" width="5.00496" height="5.00496" fill="#4285F4"/>
<rect y="15.8496" width="5.00496" height="5.00496" fill="#4285F4"/>
<rect x="10.0098" y="10.8447" width="5.00496" height="5.00496" fill="#BCD5FF"/>
<rect x="15.0146" y="15.8496" width="5.00496" height="5.00496" fill="#0E50BF"/>
<rect x="15.0146" y="10.8447" width="5.00496" height="5.00496" fill="#4285F4"/>
<rect x="10.0098" y="20.8545" width="5.00496" height="5.00496" fill="#0E50BF"/>
<rect y="20.8545" width="5.00496" height="5.00496" fill="#0E50BF"/>
<rect x="5.00488" y="20.8545" width="5.00496" height="5.00496" fill="#73A0EB"/>
<rect x="10.0098" y="15.8496" width="5.00496" height="5.00496" fill="#BCD5FF"/>
</svg>
