<svg width="355" height="108" viewBox="0 0 355 108" fill="none" xmlns="http://www.w3.org/2000/svg">
<path d="M94.7301 87.9206C91.6189 87.9206 88.8465 87.381 86.4126 86.3016C83.9787 85.2011 82.0528 83.582 80.6348 81.4444C79.238 79.2857 78.5396 76.5979 78.5396 73.381C78.5396 70.672 79.0369 68.3968 80.0316 66.5556C81.0264 64.7143 82.3808 63.2328 84.0951 62.1111C85.8094 60.9894 87.7565 60.1429 89.9364 59.5714C92.1375 59 94.4443 58.5979 96.857 58.3651C99.693 58.0688 101.979 57.7936 103.714 57.5397C105.45 57.2645 106.709 56.8624 107.492 56.3333C108.275 55.8042 108.667 55.0212 108.667 53.9841V53.7936C108.667 51.7831 108.032 50.2275 106.762 49.127C105.513 48.0265 103.735 47.4762 101.428 47.4762C98.9946 47.4762 97.0581 48.0159 95.6189 49.0952C94.1798 50.1534 93.2274 51.4868 92.7618 53.0952L80.2539 52.0794C80.8888 49.1164 82.1375 46.5556 83.9999 44.3968C85.8623 42.2169 88.2644 40.545 91.2062 39.3809C94.1692 38.1958 97.5978 37.6032 101.492 37.6032C104.201 37.6032 106.794 37.9206 109.27 38.5556C111.767 39.1905 113.979 40.1746 115.905 41.5079C117.852 42.8413 119.386 44.5556 120.508 46.6508C121.63 48.7249 122.19 51.2116 122.19 54.1111V87H109.365V80.2381H108.984C108.201 81.7619 107.153 83.1058 105.841 84.2698C104.529 85.4127 102.952 86.3122 101.111 86.9683C99.2697 87.6032 97.1428 87.9206 94.7301 87.9206ZM98.6031 78.5873C100.592 78.5873 102.349 78.1958 103.873 77.4127C105.397 76.6085 106.592 75.5291 107.46 74.1746C108.328 72.8201 108.762 71.2857 108.762 69.5714V64.3968C108.339 64.672 107.757 64.9259 107.016 65.1587C106.296 65.3704 105.481 65.5714 104.571 65.7619C103.661 65.9312 102.751 66.0899 101.841 66.2381C100.931 66.3651 100.106 66.4815 99.365 66.5873C97.7777 66.8201 96.3914 67.1905 95.2062 67.6984C94.0211 68.2063 93.1004 68.8942 92.4443 69.7619C91.7883 70.6085 91.4602 71.6667 91.4602 72.9365C91.4602 74.7778 92.1269 76.1852 93.4602 77.1587C94.8147 78.1111 96.529 78.5873 98.6031 78.5873ZM285.571 87.9206C282.46 87.9206 279.688 87.381 277.254 86.3016C274.82 85.2011 272.894 83.582 271.476 81.4444C270.079 79.2857 269.381 76.5979 269.381 73.381C269.381 70.672 269.878 68.3968 270.873 66.5556C271.868 64.7143 273.222 63.2328 274.936 62.1111C276.651 60.9894 278.598 60.1429 280.778 59.5714C282.979 59 285.286 58.5979 287.698 58.3651C290.534 58.0688 292.82 57.7936 294.555 57.5397C296.291 57.2645 297.55 56.8624 298.333 56.3333C299.116 55.8042 299.508 55.0212 299.508 53.9841V53.7936C299.508 51.7831 298.873 50.2275 297.603 49.127C296.354 48.0265 294.577 47.4762 292.27 47.4762C289.836 47.4762 287.899 48.0159 286.46 49.0952C285.021 50.1534 284.069 51.4868 283.603 53.0952L271.095 52.0794C271.73 49.1164 272.979 46.5556 274.841 44.3968C276.704 42.2169 279.106 40.545 282.048 39.3809C285.01 38.1958 288.439 37.6032 292.333 37.6032C295.042 37.6032 297.635 37.9206 300.111 38.5556C302.608 39.1905 304.82 40.1746 306.746 41.5079C308.693 42.8413 310.227 44.5556 311.349 46.6508C312.471 48.7249 313.032 51.2116 313.032 54.1111V87H300.206V80.2381H299.825C299.042 81.7619 297.995 83.1058 296.682 84.2698C295.37 85.4127 293.794 86.3122 291.952 86.9683C290.111 87.6032 287.984 87.9206 285.571 87.9206ZM289.444 78.5873C291.434 78.5873 293.19 78.1958 294.714 77.4127C296.238 76.6085 297.434 75.5291 298.301 74.1746C299.169 72.8201 299.603 71.2857 299.603 69.5714V64.3968C299.18 64.672 298.598 64.9259 297.857 65.1587C297.137 65.3704 296.323 65.5714 295.413 65.7619C294.503 65.9312 293.592 66.0899 292.682 66.2381C291.772 66.3651 290.947 66.4815 290.206 66.5873C288.619 66.8201 287.233 67.1905 286.048 67.6984C284.862 68.2063 283.942 68.8942 283.286 69.7619C282.63 70.6085 282.301 71.6667 282.301 72.9365C282.301 74.7778 282.968 76.1852 284.301 77.1587C285.656 78.1111 287.37 78.5873 289.444 78.5873Z" fill="#EA4335"/>
<path d="M178.143 38.2381L161.095 87H145.857L128.809 38.2381H143.095L153.222 73.127H153.73L163.825 38.2381H178.143Z" fill="#FBBC05"/>
<path d="M198.968 87.9206C195.857 87.9206 193.085 87.381 190.651 86.3016C188.217 85.2011 186.291 83.582 184.873 81.4444C183.476 79.2857 182.778 76.5979 182.778 73.381C182.778 70.672 183.275 68.3968 184.27 66.5556C185.264 64.7143 186.619 63.2328 188.333 62.1111C190.048 60.9894 191.995 60.1429 194.175 59.5714C196.376 59 198.682 58.5979 201.095 58.3651C203.931 58.0688 206.217 57.7936 207.952 57.5397C209.688 57.2645 210.947 56.8624 211.73 56.3333C212.513 55.8042 212.905 55.0212 212.905 53.9841V53.7936C212.905 51.7831 212.27 50.2275 211 49.127C209.751 48.0265 207.973 47.4762 205.667 47.4762C203.233 47.4762 201.296 48.0159 199.857 49.0952C198.418 50.1534 197.466 51.4868 197 53.0952L184.492 52.0794C185.127 49.1164 186.376 46.5556 188.238 44.3968C190.1 42.2169 192.503 40.545 195.444 39.3809C198.407 38.1958 201.836 37.6032 205.73 37.6032C208.439 37.6032 211.032 37.9206 213.508 38.5556C216.005 39.1905 218.217 40.1746 220.143 41.5079C222.09 42.8413 223.624 44.5556 224.746 46.6508C225.868 48.7249 226.428 51.2116 226.428 54.1111V87H213.603V80.2381H213.222C212.439 81.7619 211.391 83.1058 210.079 84.2698C208.767 85.4127 207.19 86.3122 205.349 86.9683C203.508 87.6032 201.381 87.9206 198.968 87.9206ZM202.841 78.5873C204.831 78.5873 206.587 78.1958 208.111 77.4127C209.635 76.6085 210.831 75.5291 211.698 74.1746C212.566 72.8201 213 71.2857 213 69.5714V64.3968C212.577 64.672 211.995 64.9259 211.254 65.1587C210.534 65.3704 209.719 65.5714 208.809 65.7619C207.899 65.9312 206.989 66.0899 206.079 66.2381C205.169 66.3651 204.344 66.4815 203.603 66.5873C202.016 66.8201 200.63 67.1905 199.444 67.6984C198.259 68.2063 197.339 68.8942 196.682 69.7619C196.026 70.6085 195.698 71.6667 195.698 72.9365C195.698 74.7778 196.365 76.1852 197.698 77.1587C199.053 78.1111 200.767 78.5873 202.841 78.5873ZM323.524 87V38.2381H336.635V46.746H337.143C338.032 43.7196 339.524 41.4339 341.619 39.8889C343.714 38.3227 346.127 37.5397 348.857 37.5397C349.534 37.5397 350.264 37.582 351.048 37.6667C351.831 37.7513 352.518 37.8677 353.111 38.0159V50.0159C352.476 49.8254 351.598 49.6561 350.476 49.5079C349.354 49.3598 348.328 49.2857 347.397 49.2857C345.407 49.2857 343.63 49.7196 342.063 50.5873C340.518 51.4339 339.291 52.619 338.381 54.1429C337.492 55.6667 337.048 57.4233 337.048 59.4127V87H323.524Z" fill="#4285F4"/>
<path d="M262.857 38.2381V48.3968H233.492V38.2381H262.857ZM240.159 26.5556H253.682V72.0159C253.682 73.2645 253.873 74.2381 254.254 74.9365C254.635 75.6138 255.164 76.0899 255.841 76.3651C256.54 76.6402 257.344 76.7778 258.254 76.7778C258.889 76.7778 259.524 76.7249 260.159 76.619C260.794 76.4921 261.28 76.3968 261.619 76.3333L263.746 86.3968C263.069 86.6085 262.116 86.8519 260.889 87.127C259.661 87.4233 258.169 87.6032 256.413 87.6667C253.153 87.7937 250.296 87.3598 247.841 86.3651C245.407 85.3704 243.513 83.8254 242.159 81.7302C240.804 79.6349 240.137 76.9894 240.159 73.7936V26.5556Z" fill="#34A853"/>
<rect x="33.5239" y="19.5557" width="16.7619" height="16.7619" fill="#0E50BF"/>
<rect y="19.5557" width="16.7619" height="16.7619" fill="#0E50BF"/>
<rect x="16.762" y="19.5557" width="16.7619" height="16.7619" fill="#73A0EB"/>
<rect y="36.3174" width="16.7619" height="16.7619" fill="#4285F4"/>
<rect y="53.0791" width="16.7619" height="16.7619" fill="#4285F4"/>
<rect x="33.5239" y="36.3174" width="16.7619" height="16.7619" fill="#BCD5FF"/>
<rect x="50.2856" y="53.0791" width="16.7619" height="16.7619" fill="#0E50BF"/>
<rect x="50.2856" y="36.3174" width="16.7619" height="16.7619" fill="#4285F4"/>
<rect x="33.5239" y="69.8418" width="16.7619" height="16.7619" fill="#0E50BF"/>
<rect y="69.8418" width="16.7619" height="16.7619" fill="#0E50BF"/>
<rect x="16.762" y="69.8418" width="16.7619" height="16.7619" fill="#73A0EB"/>
<rect x="33.5239" y="53.0791" width="16.7619" height="16.7619" fill="#BCD5FF"/>
</svg>
